<svg xmlns="http://www.w3.org/2000/svg" width="190" height="52" viewBox="0 0 180 34" fill="none">
  <g transform="matrix(0.15, 0, 0, 0.15, -7, 4)">
    <path d="M0 0 C1.07882446 -0.01268417 2.15764893 -0.02536835 3.26916504 -0.03843689 C5.0066803 -0.03403343 5.0066803 -0.03403343 6.77929688 -0.02954102 C8.58690491 -0.03740379 8.58690491 -0.03740379 10.43103027 -0.04542542 C12.98298371 -0.05184673 15.53496675 -0.05050725 18.08691406 -0.04199219 C21.95628003 -0.03353852 25.82414132 -0.0621538 29.69335938 -0.09399414 C32.1803381 -0.09560789 34.66731941 -0.09502531 37.15429688 -0.09204102 C38.29644653 -0.10327499 39.43859619 -0.11450897 40.61535645 -0.12608337 C56.97720327 0.01294188 71.14275975 6.33715016 82.91992188 17.57592773 C94.56585897 30.35116783 98.63514237 45.48989653 98.49804688 62.40405273 C97.44373703 78.12456558 89.94263375 91.80720285 78.65820312 102.59155273 C62.51921469 116.13312712 43.93668127 116.76124899 23.89672852 116.71972656 C20.67560695 116.71654291 17.4553851 116.74017274 14.234375 116.76538086 C12.16992302 116.76765212 10.1054686 116.76835816 8.04101562 116.76733398 C6.60957466 116.78114861 6.60957466 116.78114861 5.1492157 116.79524231 C-2.00368405 116.74583208 -6.77769606 115.98401983 -12.15960693 110.88716125 C-15.40534165 106.82688977 -15.19938203 102.8444129 -15.13305664 97.82202148 C-15.14021194 96.87493317 -15.14736725 95.92784485 -15.15473938 94.95205688 C-15.1716039 91.83139338 -15.15223634 88.71217096 -15.13085938 85.59155273 C-15.13168828 83.4173165 -15.13414846 81.24308033 -15.13816833 79.06884766 C-15.14102481 74.51600238 -15.12633924 69.96364946 -15.09887695 65.41088867 C-15.06479495 59.57991572 -15.0708141 53.74982307 -15.08953953 47.91880798 C-15.10011655 43.43030483 -15.0911652 38.9420059 -15.07615471 34.45352173 C-15.07097763 32.30376797 -15.07144893 30.15399285 -15.07769966 28.00424194 C-15.08316018 24.99772402 -15.06274909 21.99245908 -15.03540039 18.98608398 C-15.04192627 18.10070953 -15.04845215 17.21533508 -15.05517578 16.3031311 C-14.97141725 10.8780841 -14.22357181 7.63099153 -10.50195312 3.40405273 C-6.97041028 0.68912654 -4.41366901 0.02524772 0 0 Z" fill="#FFFFFF" transform="translate(20.501953125,-0.404052734375)"/>
    <path d="M0 0 C10.76625 -0.12375 10.76625 -0.12375 21.75 -0.25 C23.99006836 -0.28641602 26.23013672 -0.32283203 28.53808594 -0.36035156 C44.03704186 -0.50906132 56.16079723 0.90793139 68 12 C76.44128246 22.38794555 78.19721597 34.97859487 77 48 C74.85616188 58.94932013 70.49747676 68.32402815 61.12109375 74.72265625 C42.71915192 85.80448862 20.67549873 82 0 82 C0 54.94 0 27.88 0 0 Z M22 17 C22 32.51 22 48.02 22 64 C36.67667496 64.63974203 36.67667496 64.63974203 48.8125 58.8125 C55.19846267 50.60197657 56.24697002 43.46130598 55 33 C53.37835249 27.23082084 50.97089605 23.25860057 45.9375 19.9375 C38.07106408 15.56033467 31.68834327 17 22 17 Z " fill="#FFFFFF" transform="translate(159,25)"/>
    <path d="M0 0 C6.61156534 4.19269997 9.57396952 9.72190856 12 17 C12.73700933 28.42968573 12.3243073 36.57531487 5.8125 46.25 C-1.48807048 53.38833558 -9.9611771 55.92789938 -20.05078125 56.03125 C-29.83443126 55.53398698 -37.08311918 52.60436546 -44.2734375 45.9296875 C-50.16888513 39.3406578 -51.38909753 31.5661963 -51.2734375 22.97265625 C-50.56459989 15.26657882 -47.56739077 8.28270446 -42.1484375 2.7265625 C-30.63891387 -6.52290922 -12.78948042 -6.99187215 0 0 Z M-27 14.75 C-30.04897238 19.70458012 -30.39639749 23.15313697 -30 29 C-28.59420661 33.01655253 -27.36997569 36.32453921 -24 39 C-19.49922386 39.93555459 -15.92504664 39.55888234 -12 37.1875 C-8.03598962 32.85186364 -8.67590166 27.7682428 -8.70703125 22.18359375 C-9.10187467 17.89296187 -10.07584392 16.09616526 -13 13 C-17.68952755 10.65523623 -23.46166743 10.63059229 -27 14.75 Z " fill="#FFFFFF" transform="translate(469,52)"/>
    <path d="M0 0 C7.53136882 4.00969548 11.55814235 10.17052081 14.23046875 18.1875 C15.15854137 28.98368652 14.98517612 38.13331778 8.23046875 47.1875 C1.33621533 54.30872473 -7.09370123 56.60398005 -16.74609375 57.1875 C-25.33515373 57.1875 -33.47080935 55.04473154 -39.9375 49.2421875 C-46.57883319 42.29842566 -48.8384711 36.27672152 -49.20703125 26.75 C-48.95088227 17.5926739 -46.03515534 10.57339941 -39.7734375 3.87890625 C-29.32500069 -4.94014471 -12.12630441 -5.28347303 0 0 Z M-24.20703125 14.875 C-27.54250633 19.81150312 -28.48908594 24.24572266 -27.76953125 30.1875 C-26.6437029 34.57514611 -25.67635166 37.58295306 -21.76953125 40.1875 C-18.70426774 40.73281842 -15.83544796 40.73075893 -12.76953125 40.1875 C-10.01383678 38.00590855 -8.33364378 36.31572506 -6.76953125 33.1875 C-5.8652509 24.45988656 -5.8652509 24.45988656 -8.64453125 16.4375 C-11.50037448 13.41366599 -13.10203356 13.00258714 -17.14453125 12.875 C-20.39176797 12.91669806 -21.47240784 12.98179918 -24.20703125 14.875 Z " fill="#FFFFFF" transform="translate(600.76953125,50.8125)"/>
    <path d="M0 0 C6.9432392 4.36256623 11.42133326 10.65935157 13.4375 18.5 C13.9325 25.43 13.9325 25.43 14.4375 32.5 C2.8875 32.5 -8.6625 32.5 -20.5625 32.5 C-18.1422509 38.13106761 -18.1422509 38.13106761 -15.5625 40.5 C-8.30092796 42.35728669 -2.44983764 40.94077579 4.4375 38.5 C6.4175 38.005 6.4175 38.005 8.4375 37.5 C10.0875 42.12 11.7375 46.74 13.4375 51.5 C1.86760224 57.87182775 -9.32995019 60.41533859 -22.33203125 56.7109375 C-30.5888491 53.66569433 -35.44039051 49.41733714 -39.58203125 41.68359375 C-43.10629353 33.83473871 -42.90215189 22.99594907 -39.9375 15 C-36.24911231 7.2363308 -31.54544975 2.66594596 -23.5625 -0.5 C-16.89531497 -2.72239501 -6.45390108 -2.89532716 0 0 Z M-19.5625 15.5 C-20.2225 17.48 -20.8825 19.46 -21.5625 21.5 C-15.9525 21.5 -10.3425 21.5 -4.5625 21.5 C-5.30238842 16.45515397 -5.30238842 16.45515397 -8.5625 13.5 C-13.25193963 12.07277924 -15.80685235 12.26597008 -19.5625 15.5 Z " fill="#FFFFFF" transform="translate(285.5625,49.5)"/>
    <path d="M0 0 C1.12862175 5.36095333 1.09688221 10.55306686 1 16 C0.09636719 16.10957031 -0.80726563 16.21914063 -1.73828125 16.33203125 C-2.91777344 16.49058594 -4.09726562 16.64914063 -5.3125 16.8125 C-6.48425781 16.96332031 -7.65601563 17.11414063 -8.86328125 17.26953125 C-12.04368306 18.01017277 -13.18852826 18.34770861 -15 21 C-15.33 22.32 -15.66 23.64 -16 25 C-11.38 25 -6.76 25 -2 25 C-2 30.28 -2 35.56 -2 41 C-6.62 41 -11.24 41 -16 41 C-16 54.86 -16 68.72 -16 83 C-22.93 83 -29.86 83 -37 83 C-37 69.14 -37 55.28 -37 41 C-40.63 41 -44.26 41 -48 41 C-48 35.72 -48 30.44 -48 25 C-44.37 25 -40.74 25 -37 25 C-36.95875 23.700625 -36.9175 22.40125 -36.875 21.0625 C-36.19418816 15.29829309 -34.00540804 11.18414836 -30 7 C-21.02413397 0.6504631 -10.69412549 -0.40956225 0 0 Z " fill="#FFFFFF" transform="translate(418,24)"/>
    <path d="M0 0 C7.59 0 15.18 0 23 0 C23.78246094 2.00964844 24.56492187 4.01929688 25.37109375 6.08984375 C26.12835596 8.02946314 26.88652092 9.96872732 27.64477539 11.90795898 C28.17241487 13.25882654 28.69911087 14.61006301 29.22485352 15.96166992 C29.97947075 17.9011998 30.73743968 19.83938995 31.49609375 21.77734375 C31.95169678 22.94515381 32.4072998 24.11296387 32.87670898 25.31616211 C33.74812216 27.87454718 33.74812216 27.87454718 35 29 C38.96 19.43 42.92 9.86 47 0 C53.93 0 60.86 0 68 0 C67.28778746 3.5610627 66.76080782 5.87685673 65.3293457 9.03320312 C64.98841385 9.79169556 64.64748199 10.55018799 64.29621887 11.33166504 C63.92647446 12.14002808 63.55673004 12.94839111 63.17578125 13.78125 C62.79189743 14.6311853 62.40801361 15.48112061 62.01249695 16.35681152 C60.78402879 19.07344123 59.54833285 21.78671391 58.3125 24.5 C57.50018429 26.29405957 56.68833074 28.08832848 55.87695312 29.8828125 C51.62592423 39.27440205 47.33378648 48.64630251 43 58 C37.06 58 31.12 58 25 58 C22.40044809 52.15235532 19.80459209 46.30308819 17.21191406 40.45239258 C16.33235493 38.46888715 15.45184717 36.48580205 14.5703125 34.50317383 C9.49224226 23.08040106 4.5502076 11.64405583 0 0 Z " fill="#FFFFFF" transform="translate(298,49)"/>
    <path d="M0 0 C6.93 0 13.86 0 21 0 C21 27.06 21 54.12 21 82 C14.07 82 7.14 82 0 82 C0 54.94 0 27.88 0 0 Z " fill="#FFFFFF" transform="translate(490,25)"/>
    <path d="M0 0 C7.26 0 14.52 0 22 0 C22 19.14 22 38.28 22 58 C15.07 58 8.14 58 1 58 C0 57 0 57 -0.12025452 54.71580505 C-0.11803391 53.70542679 -0.11581329 52.69504852 -0.11352539 51.65405273 C-0.11344986 50.5129454 -0.11337433 49.37183807 -0.11329651 48.19615173 C-0.10813522 46.9545076 -0.10297394 45.71286346 -0.09765625 44.43359375 C-0.0962413 43.16983414 -0.09482635 41.90607452 -0.09336853 40.60401917 C-0.08870582 37.23875111 -0.0797148 33.8735501 -0.06866455 30.50830078 C-0.05844846 27.0765033 -0.05387049 23.64469891 -0.04882812 20.21289062 C-0.0377738 13.47523936 -0.02049637 6.73762889 0 0 Z " fill="#FFFFFF" transform="translate(522,49)"/>
    <path d="M0 0 C0.33 0 0.66 0 1 0 C1.74440649 15.54982444 -2.00697292 29.5051668 -12.4375 41.375 C-13.93991268 42.93462376 -15.45918261 44.47830623 -17 46 C-17.54140625 46.56332031 -18.0828125 47.12664062 -18.640625 47.70703125 C-30.0050502 58.58358971 -44.64606067 61.31283432 -59.734375 61.30078125 C-60.93056458 61.30506638 -62.12675415 61.3093515 -63.35919189 61.31376648 C-65.87373219 61.31948312 -68.38828901 61.32002983 -70.90283203 61.31567383 C-74.75191157 61.31249842 -78.60023317 61.33606072 -82.44921875 61.36132812 C-84.89843653 61.36359981 -87.34765638 61.36430522 -89.796875 61.36328125 C-91.52040192 61.37709587 -91.52040192 61.37709587 -93.27874756 61.39118958 C-94.88631927 61.38184639 -94.88631927 61.38184639 -96.52636719 61.37231445 C-97.46518738 61.37294388 -98.40400757 61.3735733 -99.37127686 61.3742218 C-103.73962361 60.75234932 -107.20594831 58.3822731 -110 55 C-110 54.34 -110 53.68 -110 53 C-109.30001892 53.00666183 -108.60003784 53.01332367 -107.87884521 53.02018738 C-101.23092995 53.0806946 -94.58309331 53.12617337 -87.93496323 53.15543652 C-84.51837007 53.17098758 -81.10200742 53.19202813 -77.68554688 53.22631836 C-73.7435192 53.26562883 -69.80157968 53.2797964 -65.859375 53.29296875 C-64.65263123 53.30845261 -63.44588745 53.32393646 -62.20257568 53.33988953 C-45.46175206 53.34315882 -30.29352362 48.08527501 -18.17578125 36.3046875 C-8.24903443 25.78982103 -2.90699122 14.15245724 0 0 Z " fill="#FFFFFF" transform="translate(122,67)"/>
    <path d="M0 0 C7.26 0 14.52 0 22 0 C22 6.27 22 12.54 22 19 C14.74 19 7.48 19 0 19 C0 12.73 0 6.46 0 0 Z " fill="#FFFFFF" transform="translate(522,21)"/>
    </g>
</svg>