<svg xmlns="http://www.w3.org/2000/svg" viewBox="0 0 400 168">
  <!-- Symbol -->
  <g transform="translate(45, 60)">
    <path d="M0 0 C8.5 4.5 8.5 4.5 11 7 C11.1 9.7 11 12.3 11 15 C9.4 15.7 7.7 16.3 6 17 C5.8 15.9 5.6 14.9 5.4 13.8 C4.5 10.6 3.5 9.2 0.7 7.5 C-4.6 5.4 -6.2 6.3 -11.3 8.4 C-14.2 10.7 -14.2 10.7 -14.4 13.7 C-14.4 16.5 -14.3 19.2 -14 22 C-13 22.7 -12 23.4 -10.9 24.1 C-10.1 24.6 -10.1 24.6 -9.2 25.2 C-5.7 26.4 -3.6 25.9 0 25 C4.2 22.9 8.1 20.4 12.1 17.9 C20 13 20 13 25 14 C27.9 15.5 27.9 15.5 30.8 17.4 C31.7 18 32.6 18.6 33.6 19.3 C36 21 36 21 38 23 C38.3 25.8 38.4 28.5 38.4 31.4 C38.5 32.1 38.5 32.9 38.5 33.7 C38.6 39.4 38.6 39.4 35.7 42.4 C34.8 42.9 33.9 43.4 33 44 C32.3 44.5 31.5 45 30.8 45.5 C27.3 47.6 24.7 48.9 20.6 49.3 C15.2 47.4 10.3 45 6 41 C4.8 37.8 5.2 36.5 6 33 C9 31 9 31 12 31 C12 33.3 12 35.6 12 38 C16 39.8 19.6 40.8 24 41 C26.6 39.9 28.6 38.6 31 37 C31.5 33.2 31.7 29.8 31 26 C28.7 23.4 26.3 21.9 23 21 C19.9 21.5 17.5 22.7 14.8 24.2 C13.6 24.9 13.6 24.9 12.4 25.5 C11.6 26 10.8 26.5 9.9 26.9 C9.1 27.4 8.3 27.8 7.5 28.3 C4.2 30.1 1.1 31.9 -2 34 C-6.8 34.8 -9.9 32.6 -13.8 30.1 C-14.3 29.7 -14.9 29.3 -15.5 28.9 C-19.8 26.2 -19.8 26.2 -21 25 C-21.2 22.2 -21.3 19.5 -21.4 16.7 C-21.4 15.9 -21.4 15.1 -21.5 14.3 C-21.6 8.6 -21.6 8.6 -18.8 5.6 C-17.8 5.1 -16.9 4.6 -16 4 C-15.3 3.5 -14.5 3 -13.8 2.5 C-8.8 -0.5 -5.8 -1.9 0 0" 
          fill="#7C44D8"/>
  </g>
  
  <!-- Text "polygon" -->
  <g transform="translate(100, 60)">
    <path d="M0 0h7.8c7.9 0 13.8 5.9 13.8 13.8v22.4c0 7.9-5.9 13.8-13.8 13.8H0V0zm7.8 42.1c3.9 0 5.9-2 5.9-5.9V13.8c0-3.9-2-5.9-5.9-5.9H7.8v34.2h0z" fill="#EFEFEF"/>
    <path d="M35.6 0c7.9 0 13.8 5.9 13.8 13.8v22.4c0 7.9-5.9 13.8-13.8 13.8s-13.8-5.9-13.8-13.8V13.8C21.8 5.9 27.7 0 35.6 0zm5.9 36.2V13.8c0-3.9-2-5.9-5.9-5.9s-5.9 2-5.9 5.9v22.4c0 3.9 2 5.9 5.9 5.9s5.9-2 5.9-5.9z" fill="#EFEFEF"/>
    <path d="M63.4 0h7.8c7.9 0 13.8 5.9 13.8 13.8v36.2h-7.8V13.8c0-3.9-2-5.9-5.9-5.9h-7.8V50h-7.8V0h7.8z" fill="#EFEFEF"/>
    <path d="M98.9 0c7.9 0 13.8 5.9 13.8 13.8v22.4c0 7.9-5.9 13.8-13.8 13.8H91V0h7.9zm5.9 36.2V13.8c0-3.9-2-5.9-5.9-5.9h-0.1v34.2h0.1c3.9 0 5.9-2 5.9-5.9z" fill="#EFEFEF"/>
    <path d="M126.7 0h7.8c7.9 0 13.8 5.9 13.8 13.8v22.4c0 7.9-5.9 13.8-13.8 13.8h-7.8V0zm7.8 42.1c3.9 0 5.9-2 5.9-5.9V13.8c0-3.9-2-5.9-5.9-5.9h-0.1v34.2h0.1z" fill="#EFEFEF"/>
    <path d="M161.2 0h23.6v7.9h-15.8v13.2h13.8v7.9h-13.8v13.2h15.8V50h-23.6V0z" fill="#EFEFEF"/>
  </g>
</svg>